<?xml version="1.0" encoding="utf-8"?>
<!-- Generator: Adobe Illustrator 20.1.0, SVG Export Plug-In . SVG Version: 6.00 Build 0)  -->
<svg version="1.1" xmlns="http://www.w3.org/2000/svg" xmlns:xlink="http://www.w3.org/1999/xlink" x="0px" y="0px"
	 viewBox="0 0 16 16" enable-background="new 0 0 16 16" xml:space="preserve">
<g id="Hilfslinien" display="none">
</g>
<g id="Icons">
	<g>
		<path d="M6.6,13.1L6.6,13.1C6.6,13.1,6.6,13.1,6.6,13.1C6.6,13.1,6.6,13.1,6.6,13.1z"/>
		<polygon points="6.6,13.1 6.6,13.1 6.6,13.1 		"/>
		<path d="M6.6,13C6.6,13,6.6,13,6.6,13C6.6,13,6.6,13.1,6.6,13L6.6,13C6.6,13.1,6.6,13.1,6.6,13z"/>
		<path d="M6.6,12.8c0,0-0.1,0.1-0.1,0.1c0,0,0,0,0,0l0.1,0C6.5,12.9,6.5,12.8,6.6,12.8C6.6,12.8,6.6,12.9,6.6,12.8
			C6.6,12.8,6.6,12.8,6.6,12.8c0.1,0,0.1,0,0.1,0c0,0,0.1-0.1,0-0.1C6.7,12.7,6.6,12.7,6.6,12.8z"/>
		<path d="M6.4,13.1L6.4,13.1C6.3,13.1,6.4,13.1,6.4,13.1c-0.1,0-0.1,0-0.1,0C6.3,13.1,6.3,13.1,6.4,13.1
			C6.3,13.1,6.3,13.1,6.4,13.1C6.4,13.2,6.4,13.1,6.4,13.1z"/>
		<path d="M6.2,13.1L6.2,13.1C6.3,13.1,6.3,13.1,6.2,13.1L6.2,13.1L6.2,13.1z"/>
		<path d="M7.1,12.5C7.1,12.5,7.1,12.6,7.1,12.5C7,12.6,7,12.6,7.1,12.5C7,12.6,7,12.7,6.9,12.7l-0.1,0c0,0,0,0,0,0l0,0
			c0,0.1-0.1,0.1-0.1,0.2l0,0c0,0,0.1,0,0.1,0c0,0,0,0,0,0l0,0c0,0,0,0.1-0.1,0c0,0,0,0,0,0c0,0,0,0,0,0c0,0,0,0,0,0
			c0,0,0.1,0.1,0.1,0.1c0.1,0,0.2-0.1,0.2-0.1c0,0,0,0,0,0c0,0,0,0,0,0l0.1,0l0.1,0v0c0,0,0,0,0,0c0,0,0,0,0,0c0,0,0,0,0.1,0l0,0
			l0,0l0,0l0.1,0l0.1,0c0.3,0,0.5-0.1,0.7-0.1c0.1,0,0.3,0,0.4,0c0.3,0,0.5-0.1,0.8,0.1c0.1,0.1,0.3,0,0.4,0c0.1-0.1,0.1-0.4,0-0.4
			c-0.1-0.2-0.1-0.1-0.3-0.2c0.1,0.1-0.1,0.2-0.2,0c-0.2-0.3-0.4,0-0.6-0.1c-0.1,0-0.1,0-0.2,0c-0.3,0-0.6,0.1-0.9,0.2
			c-0.1,0-0.1,0.1-0.2,0.2c0,0-0.1,0-0.2,0C7.1,12.5,7.1,12.5,7.1,12.5C7.1,12.5,7.1,12.5,7.1,12.5C7.2,12.4,7.2,12.5,7.1,12.5
			C7.2,12.6,7.1,12.5,7.1,12.5z M7.4,12.8C7.4,12.8,7.4,12.8,7.4,12.8C7.4,12.7,7.4,12.7,7.4,12.8z"/>
		<path d="M6.4,14L6.4,14C6.5,14,6.4,14,6.4,14C6.4,14,6.4,14,6.4,14z"/>
		<polygon points="6.5,14 6.5,14 6.5,14 		"/>
		<path d="M6.5,14C6.5,14,6.5,14,6.5,14C6.5,14,6.5,14,6.5,14L6.5,14C6.5,14,6.5,14,6.5,14z"/>
		<path d="M6.4,13.7C6.4,13.7,6.5,13.8,6.4,13.7c0.1,0,0.1,0,0.1,0c0,0,0.1,0,0.1,0c0,0,0.1-0.1,0-0.1C6.6,13.6,6.5,13.6,6.4,13.7
			C6.4,13.7,6.4,13.8,6.4,13.7c-0.1,0.1-0.1,0.1-0.1,0.1l0.1,0C6.4,13.8,6.4,13.7,6.4,13.7z"/>
		<path d="M6.2,14c0,0-0.1,0-0.1,0C6.1,14,6.1,14,6.2,14C6.1,14,6.1,14,6.2,14C6.2,14.1,6.2,14,6.2,14L6.2,14C6.2,14,6.2,14,6.2,14z
			"/>
		<path d="M6.1,14L6.1,14C6.1,14,6.1,14,6.1,14L6.1,14L6.1,14z"/>
		<path d="M7.4,13.7c0.3,0,0.5-0.1,0.8-0.1c0.2,0,0.3,0,0.4,0c0.3,0.1,0.5-0.1,0.8,0.1c0.1,0.1,0.3,0,0.4,0c0.1-0.1,0.1-0.4,0.1-0.4
			c-0.1-0.3-0.2-0.1-0.3-0.3c0.1,0.1-0.1,0.2-0.2,0c-0.2-0.3-0.4,0-0.6-0.1c-0.1,0-0.1,0-0.2,0c-0.3-0.1-0.6,0.1-1,0.1
			c-0.1,0-0.2,0.1-0.2,0.1c-0.1,0-0.1,0-0.2,0c-0.1,0-0.1,0.1-0.2,0.1c0.1,0,0.1-0.1,0.2-0.1c0,0,0,0.1,0,0.1c0,0,0-0.1-0.1,0
			c0,0,0,0-0.1,0.1c0,0,0,0,0,0c0,0,0,0.1-0.1,0.1l-0.1,0c0,0,0,0,0,0l0,0c0,0.1-0.1,0.1-0.1,0.2l0,0c0,0,0.1,0,0.1,0c0,0,0,0,0,0
			l0,0c0,0-0.1,0.1-0.1,0c0,0,0,0,0,0c0,0,0,0,0,0c0,0,0,0,0,0c0,0,0.1,0.1,0.1,0.1c0.1,0,0.2,0,0.2-0.1c0,0,0,0,0,0c0,0,0,0,0,0
			l0.1,0l0.1,0v0c0,0,0,0,0,0l0.1,0L7.4,13.7z M7.4,13.7C7.3,13.8,7.3,13.7,7.4,13.7C7.3,13.7,7.3,13.7,7.4,13.7z M7.1,13.7
			C7.1,13.7,7.1,13.7,7.1,13.7C7.1,13.8,7.1,13.8,7.1,13.7z M7.2,13.8L7.2,13.8L7.2,13.8C7.2,13.8,7.2,13.8,7.2,13.8z"/>
		<path d="M7.9,15.3L7.9,15.3C7.9,15.3,7.9,15.3,7.9,15.3C7.9,15.3,7.9,15.3,7.9,15.3z"/>
		<path d="M8,15.3L8,15.3C8,15.3,8,15.3,8,15.3L8,15.3z"/>
		<path d="M8,15.3L8,15.3C8,15.3,8,15.3,8,15.3C8,15.3,8,15.3,8,15.3C8,15.3,8,15.3,8,15.3z"/>
		<path d="M7.7,15.4c-0.1,0-0.1,0-0.1,0c0,0,0,0,0,0C7.6,15.5,7.6,15.5,7.7,15.4C7.6,15.5,7.6,15.5,7.7,15.4L7.7,15.4
			C7.6,15.4,7.6,15.4,7.7,15.4z"/>
		<path d="M7.5,15.5L7.5,15.5C7.5,15.5,7.5,15.5,7.5,15.5L7.5,15.5L7.5,15.5z"/>
		<path d="M9.2,14.3l0-0.3c0,0,0,0-0.1,0c-0.1,0-0.2,0.1-0.3,0.2c0,0,0,0,0,0c0,0-0.1,0-0.1,0c-0.2,0-0.4,0-0.6,0
			c-0.4,0-0.7,0.1-1.1,0c-0.2,0-0.4,0.1-0.5,0.1c-0.1,0.2,0,0.4,0,0.4c0.2,0.2,0.2,0.1,0.5,0.2c-0.2,0,0.1-0.2,0.3,0
			c0.3,0.2,0.5,0,0.7,0c0,0,0,0-0.1,0.1c0,0.1-0.1,0.1-0.1,0.2c0,0,0,0,0,0c0,0,0.1,0,0.1,0c0,0,0-0.1,0.1-0.1c0,0,0,0,0,0
			c0,0,0-0.1,0.1-0.1c0,0,0.1,0,0.1,0c0,0,0,0,0,0c0,0,0.1,0,0.1,0c0,0,0,0.1-0.1,0.1l0,0c0,0,0.1-0.1,0.1,0c0,0,0,0,0,0l0,0
			c0,0,0,0.1-0.1,0.1c0,0,0,0,0,0c0,0,0,0,0,0c0,0,0,0,0,0c0,0,0.1,0,0.1,0C8.2,15,8.3,15,8.4,14.9c0.3,0,0.5-0.1,0.8-0.1l0-0.3
			c0,0,0.1,0,0.1,0l0.7-0.2L9.2,14.3C9.2,14.3,9.2,14.3,9.2,14.3z"/>
		<path d="M12.8,9.2C12.8,9.2,12.8,9.2,12.8,9.2L12.8,9.2C12.8,9.1,12.8,9.2,12.8,9.2z"/>
		<polygon points="12.8,9.1 12.8,9.1 12.8,9.1 		"/>
		<path d="M12.8,9.2C12.8,9.2,12.8,9.1,12.8,9.2L12.8,9.2L12.8,9.2C12.8,9.1,12.8,9.2,12.8,9.2z"/>
		<path d="M12.7,9.4C12.7,9.4,12.7,9.3,12.7,9.4C12.7,9.4,12.6,9.4,12.7,9.4C12.6,9.4,12.7,9.3,12.7,9.4c-0.1,0-0.1,0-0.1,0
			C12.6,9.4,12.6,9.4,12.7,9.4C12.7,9.4,12.7,9.4,12.7,9.4C12.7,9.3,12.8,9.4,12.7,9.4L12.7,9.4C12.7,9.3,12.7,9.4,12.7,9.4z"/>
		<path d="M12.9,9.2C12.9,9.2,12.9,9.2,12.9,9.2L12.9,9.2C12.9,9.3,12.9,9.2,12.9,9.2C12.9,9.3,12.9,9.3,12.9,9.2
			C12.9,9.3,12.9,9.2,12.9,9.2C12.9,9.2,12.9,9.2,12.9,9.2z"/>
		<polygon points="12.9,9.3 12.9,9.3 12.9,9.3 12.9,9.3 		"/>
		<path d="M12.7,9.3C12.7,9.3,12.7,9.2,12.7,9.3C12.7,9.2,12.6,9.2,12.7,9.3L12.7,9.3C12.7,9.2,12.7,9.2,12.7,9.3
			C12.7,9.2,12.7,9.2,12.7,9.3C12.7,9.2,12.7,9.2,12.7,9.3C12.7,9.3,12.7,9.3,12.7,9.3C12.7,9.2,12.7,9.2,12.7,9.3
			c0-0.1,0-0.1-0.1-0.1c0,0,0,0,0,0c0,0,0,0,0,0l0,0l0,0c0,0,0,0,0,0l0,0l0,0l0,0c0,0,0,0,0,0c0,0,0,0,0,0c0,0,0,0,0,0l0,0l0,0l0,0
			l0,0l0,0c-0.1-0.1-0.2-0.1-0.2-0.2c0,0-0.1-0.1-0.1-0.1c-0.1-0.1-0.2-0.1-0.2-0.3c0-0.1-0.1-0.1-0.1-0.1c-0.1,0.1-0.2,0.4-0.2,0.4
			c-0.1,0.2,0,0.1,0,0.3c0-0.1,0.1-0.1,0.1,0c-0.1,0.3,0.1,0.1,0.2,0.2c0,0,0,0,0.1,0c0.1,0.1,0.2,0.1,0.3,0.1c0,0,0.1,0,0.1-0.1
			c0,0,0,0,0,0c0,0,0.1,0,0.1,0c0,0-0.1,0-0.1,0c0,0,0-0.1,0.1-0.1c0,0,0,0.1,0,0c0,0,0,0,0.1,0c0,0,0,0.1,0,0c0,0,0.1-0.1,0.1-0.1
			l0,0c0,0,0,0,0,0l0,0C12.6,9.3,12.6,9.3,12.7,9.3L12.7,9.3z M12.5,9.1L12.5,9.1C12.5,9.1,12.5,9.1,12.5,9.1
			C12.5,9,12.5,9,12.5,9.1z"/>
		<path d="M14.3,5.5L14.3,5.5C14.3,5.5,14.3,5.5,14.3,5.5C14.3,5.6,14.3,5.5,14.3,5.5z"/>
		<polygon points="14.3,5.5 14.3,5.5 14.3,5.5 		"/>
		<path d="M14.3,5.5L14.3,5.5L14.3,5.5C14.3,5.5,14.3,5.6,14.3,5.5C14.3,5.6,14.3,5.5,14.3,5.5z"/>
		<path d="M14.3,5.8C14.3,5.8,14.3,5.7,14.3,5.8C14.3,5.8,14.3,5.8,14.3,5.8C14.2,5.8,14.2,5.8,14.3,5.8c-0.1,0-0.1,0.1-0.1,0.1
			C14.2,5.9,14.2,5.9,14.3,5.8C14.3,5.8,14.3,5.8,14.3,5.8C14.4,5.7,14.4,5.7,14.3,5.8L14.3,5.8C14.3,5.7,14.3,5.8,14.3,5.8z"/>
		<path d="M14.5,5.6C14.5,5.5,14.4,5.6,14.5,5.6L14.5,5.6C14.4,5.6,14.4,5.6,14.5,5.6C14.5,5.6,14.5,5.6,14.5,5.6
			C14.5,5.6,14.5,5.6,14.5,5.6C14.5,5.6,14.5,5.6,14.5,5.6z"/>
		<path d="M14.5,5.6C14.5,5.6,14.5,5.6,14.5,5.6L14.5,5.6L14.5,5.6L14.5,5.6z"/>
		<path d="M14.2,5.7C14.2,5.7,14.2,5.7,14.2,5.7C14.2,5.7,14.2,5.7,14.2,5.7L14.2,5.7C14.2,5.6,14.2,5.6,14.2,5.7
			C14.2,5.7,14.2,5.7,14.2,5.7C14.2,5.7,14.2,5.7,14.2,5.7C14.2,5.7,14.2,5.7,14.2,5.7C14.2,5.7,14.2,5.6,14.2,5.7
			c-0.1-0.1-0.1-0.1-0.2-0.1c0,0,0,0,0,0c0,0,0,0,0,0l0,0l0,0c0,0,0,0,0,0c0,0,0,0,0,0l0,0c0,0,0,0,0,0l0,0l0,0l0,0l0,0l-0.1,0
			c-0.1,0-0.3,0-0.4,0c-0.1,0-0.2,0-0.2,0c-0.2-0.1-0.3,0.1-0.5-0.1c-0.1-0.1-0.2,0-0.2,0c-0.1,0.1,0,0.4,0,0.4
			c0.1,0.2,0.1,0.1,0.2,0.2c-0.1-0.1,0-0.2,0.1,0c0.1,0.2,0.2,0,0.3,0.1c0,0,0.1,0,0.1,0c0.2,0.1,0.3-0.1,0.5-0.1
			c0,0,0.1-0.1,0.1-0.1c0,0,0.1,0,0.1,0C14,6,14,6,14,5.9c0,0-0.1,0-0.1,0.1c0,0,0-0.1,0-0.1c0,0,0,0.1,0,0c0,0,0,0,0-0.1
			c0,0,0,0.1,0,0c0,0,0-0.1,0-0.1l0,0c0,0,0,0,0,0l0,0C14.2,5.8,14.2,5.7,14.2,5.7L14.2,5.7z M13.8,5.6C13.8,5.6,13.8,5.6,13.8,5.6
			C13.8,5.6,13.8,5.6,13.8,5.6L13.8,5.6z"/>
		<path d="M12.2,2L12.2,2C12.2,2,12.2,2,12.2,2C12.2,2,12.2,2,12.2,2z"/>
		<polygon points="12.2,2 12.2,2 12.2,2 		"/>
		<path d="M12.2,2C12.2,2,12.2,2,12.2,2L12.2,2C12.2,2,12.2,2,12.2,2C12.2,2,12.2,2,12.2,2z"/>
		<path d="M12.3,2.1C12.3,2.1,12.4,2.1,12.3,2.1C12.4,2.2,12.3,2.1,12.3,2.1c0,0.1,0,0.1,0,0.1c0,0-0.1,0-0.1,0c0,0,0.1,0.1,0.1,0.1
			c0,0,0-0.1,0-0.1C12.4,2.1,12.4,2.1,12.3,2.1C12.4,2.1,12.4,2.1,12.3,2.1L12.3,2.1z"/>
		<path d="M12.3,1.9C12.3,1.9,12.3,1.9,12.3,1.9C12.3,1.9,12.3,1.9,12.3,1.9C12.3,1.9,12.3,1.9,12.3,1.9C12.3,1.9,12.3,1.9,12.3,1.9
			C12.3,1.9,12.3,1.9,12.3,1.9L12.3,1.9z"/>
		<path d="M12.3,1.9L12.3,1.9C12.3,1.9,12.3,1.9,12.3,1.9L12.3,1.9L12.3,1.9z"/>
		<path d="M11.2,3.4c0.2,0.1,0.1,0,0.3,0c-0.1,0-0.1-0.1,0.1-0.1c0.3,0.1,0.2-0.1,0.3-0.2c0,0,0,0,0.1-0.1c0.2-0.1,0.2-0.3,0.3-0.4
			c0,0,0-0.1,0-0.2c0,0,0.1,0,0.1,0c0,0,0-0.1,0-0.1c0,0,0,0.1,0,0.1c0,0-0.1-0.1-0.1-0.1c0,0,0.1,0,0.1,0c0,0,0,0,0-0.1
			c0,0,0,0,0,0c0,0-0.1-0.1,0-0.1l0,0c0,0,0,0,0,0l0,0c0,0,0-0.1,0-0.1l0,0c0,0,0,0-0.1,0c0,0,0,0,0,0l0,0c0,0,0,0,0,0c0,0,0,0,0,0
			c0,0,0,0,0,0l0,0c0,0-0.1,0-0.1,0c0,0-0.1,0.1-0.1,0.1c0,0,0,0,0,0c0,0,0,0,0,0l-0.2,0l-0.2,0v0c0,0,0.2,0,0.2,0c0,0,0.1,0,0.1,0
			c0,0,0,0,0,0c0,0,0,0,0,0c0,0,0,0,0,0l0,0l0,0l0,0l0,0l-0.1,0c-0.1,0.1-0.2,0.2-0.3,0.3c-0.1,0-0.1,0.1-0.2,0.1
			C11.2,2.8,11.2,3,11,3c-0.1,0-0.1,0.1-0.1,0.2C10.9,3.3,11.2,3.4,11.2,3.4z M12,2.4C12,2.4,11.9,2.4,12,2.4
			C11.9,2.3,11.9,2.4,12,2.4z"/>
		<path d="M7.9,0.9L7.9,0.9C7.9,0.9,7.9,0.9,7.9,0.9C7.9,0.9,7.9,0.9,7.9,0.9z"/>
		<polygon points="7.9,0.9 7.9,0.9 7.9,0.9 		"/>
		<path d="M7.9,0.9C7.9,0.9,7.9,1,7.9,0.9L7.9,0.9L7.9,0.9C7.9,1,7.9,1,7.9,0.9z"/>
		<path d="M8.2,1C8.2,1,8.1,1,8.2,1C8.2,1,8.2,1,8.2,1C8.2,1,8.1,1,8.2,1C8.2,1,8.3,1.1,8.2,1C8.2,1,8.2,1,8.2,1
			C8.2,0.9,8.1,0.9,8.2,1C8.1,0.9,8.1,0.9,8.2,1L8.2,1C8.1,0.9,8.2,0.9,8.2,1z"/>
		<path d="M8,1.2C8,1.2,8,1.2,8,1.2c0,0,0-0.1,0-0.1c0,0,0,0,0,0c0,0,0,0,0,0c0,0,0-0.2,0-0.2c0,0,0,0,0-0.1c0,0,0,0,0,0
			c0,0,0,0,0,0c0,0,0,0,0,0c0,0,0,0,0,0l0,0l0,0l0,0c0-0.1,0-0.3,0-0.3h0l0,0.3c0,0,0,0,0,0c0,0,0,0,0,0l0,0c0,0,0,0,0,0l0,0l0,0
			L8,1.2C8,1.2,8,1.2,8,1.2C8,1.2,8,1.2,8,1.2C8,1.2,8,1.2,8,1.2z M8,0.8C8,0.8,8,0.8,8,0.8C8,0.8,8,0.8,8,0.8L8,0.8z"/>
		<path d="M8.1,2.5c0.3,0,0.1-0.1,0.3-0.2c-0.1,0.1-0.2,0,0-0.1c0.3-0.1,0-0.2,0.1-0.3c0,0,0,0,0-0.1c0.1-0.1,0-0.3,0-0.4
			c0,0-0.1-0.1-0.1-0.1c0,0,0-0.1,0-0.1c0,0,0-0.1-0.1-0.1c0,0,0,0,0,0.1c0,0-0.1,0-0.1,0c0,0,0.1,0,0,0c0,0,0,0-0.1,0
			c0,0,0.1,0,0,0c0,0-0.1,0-0.1,0l0,0c0,0,0,0,0,0l0,0c0,0-0.1-0.1-0.1-0.1l0,0c0,0,0,0,0,0c0,0,0,0,0,0l0,0c0,0,0,0,0,0
			c0,0,0,0,0,0c0,0,0,0,0,0c0,0,0,0,0,0c0,0,0,0,0,0c0,0,0,0,0,0c0,0,0,0,0,0c0,0,0,0,0,0l0,0l0,0c0,0,0,0,0,0c0,0,0,0,0,0l0,0h0
			c0,0,0,0,0,0l0,0l0,0l0,0c0,0,0,0,0,0l0,0.1c0,0.1,0,0.2-0.1,0.4c0,0.1,0,0.1-0.1,0.2C7.7,2,7.8,2.2,7.6,2.3c-0.1,0.1,0,0.1,0,0.2
			C7.8,2.5,8.1,2.5,8.1,2.5z M8.1,1.3C8.1,1.3,8,1.3,8.1,1.3C8,1.3,8.1,1.3,8.1,1.3z M8,1.3C8,1.3,8,1.3,8,1.3C8,1.3,8,1.3,8,1.3
			C8,1.3,8,1.3,8,1.3C8,1.3,8,1.3,8,1.3z M8,1.3C8,1.3,8,1.3,8,1.3C8,1.3,8,1.3,8,1.3C7.9,1.3,8,1.3,8,1.3z"/>
		<path d="M8,1C8,1,8,1,8,1C8,1,8,1,8,1C8,1,8,1,8,1z"/>
		<path d="M8,1C8,1,8,1,8,1C8,1,8,1,8,1C8,1,8,1,8,1z"/>
		<path d="M8.1,1C8.1,1,8.1,1,8.1,1C8.1,1,8,1,8.1,1C8,1,8,1,8.1,1C8,1,8.1,1,8.1,1z"/>
		<path d="M8,1.1C8,1.1,8,1,8,1.1C8,1,8,1.1,8,1.1z"/>
		<path d="M8,1.3L8,1.3C8,1.3,8,1.3,8,1.3L8,1.3C8,1.3,8,1.3,8,1.3z"/>
		<path d="M4.2,2.6C4.2,2.6,4.2,2.6,4.2,2.6C4.2,2.6,4.2,2.6,4.2,2.6L4.2,2.6z"/>
		<polygon points="4.2,2.6 4.2,2.6 4.2,2.6 		"/>
		<path d="M4.2,2.6C4.2,2.6,4.2,2.6,4.2,2.6L4.2,2.6C4.2,2.6,4.2,2.6,4.2,2.6C4.2,2.6,4.2,2.6,4.2,2.6z"/>
		<path d="M4.4,2.5C4.4,2.5,4.3,2.5,4.4,2.5C4.4,2.5,4.4,2.5,4.4,2.5C4.4,2.5,4.4,2.6,4.4,2.5c0,0.1,0.1,0,0.1,0
			C4.5,2.5,4.5,2.5,4.4,2.5C4.4,2.5,4.3,2.5,4.4,2.5C4.3,2.5,4.3,2.5,4.4,2.5L4.4,2.5C4.3,2.5,4.4,2.5,4.4,2.5z"/>
		<path d="M4.1,2.5L4.1,2.5C4.2,2.5,4.1,2.5,4.1,2.5C4.1,2.5,4.1,2.5,4.1,2.5C4.1,2.5,4.1,2.5,4.1,2.5C4.1,2.5,4.1,2.5,4.1,2.5
			C4.1,2.5,4.1,2.5,4.1,2.5z"/>
		<path d="M4.1,2.4L4.1,2.4C4.1,2.4,4.1,2.4,4.1,2.4L4.1,2.4L4.1,2.4z"/>
		<path d="M4.4,3.3C4.4,3.3,4.4,3.3,4.4,3.3c0,0,0-0.2,0-0.2c0,0,0,0,0-0.1c0,0,0,0,0,0C4.4,3,4.4,3.3,4.4,3.3z"/>
		<path d="M4.8,3.5C4.8,3.6,5,3.6,5,3.8C4.9,3.9,5,4,5.1,4c0.1,0,0.3-0.2,0.3-0.3c0.2-0.2,0-0.1,0.1-0.3c0,0.1-0.2,0.1-0.1-0.1
			c0.1-0.2-0.1-0.2-0.1-0.3c0,0,0,0-0.1-0.1c0-0.2-0.2-0.2-0.3-0.3c0,0-0.1,0-0.2,0c0,0,0-0.1,0-0.1c0,0-0.1,0-0.1,0
			c0,0,0.1,0,0.1,0c0,0-0.1,0.1-0.1,0.1c0,0,0-0.1,0,0c0,0,0,0-0.1,0c0,0,0,0,0,0c0,0-0.1,0-0.1,0l0,0c0,0,0,0,0,0l0,0
			c0,0-0.1,0-0.1,0l0,0c0,0,0,0,0,0.1c0,0,0,0,0,0l0,0c0,0,0,0,0,0c0,0,0,0,0,0c0,0,0,0,0,0l0,0c0,0,0,0.1,0,0.1
			c0,0,0.1,0.1,0.1,0.1c0,0,0,0,0,0c0,0,0,0,0,0l0,0.3l0,0.3l0-0.3c0,0,0-0.1,0-0.1c0,0,0,0,0,0c0,0,0,0.1,0,0.1c0,0,0-0.1,0-0.1
			c0,0,0,0,0,0c0,0,0,0,0,0l0,0l0,0c0,0,0,0,0,0l0,0.1c0.1,0.1,0.2,0.2,0.2,0.3C4.8,3.3,4.8,3.4,4.8,3.5z M4.5,2.9
			C4.5,2.9,4.5,2.9,4.5,2.9C4.5,2.9,4.5,2.9,4.5,2.9C4.5,2.9,4.5,2.9,4.5,2.9C4.5,2.9,4.5,2.9,4.5,2.9z M4.5,2.9
			C4.5,2.9,4.5,2.9,4.5,2.9C4.5,2.9,4.5,2.9,4.5,2.9C4.5,2.9,4.5,2.9,4.5,2.9C4.5,2.9,4.5,2.9,4.5,2.9z M4.5,2.8
			C4.6,2.8,4.5,2.8,4.5,2.8C4.5,2.8,4.6,2.8,4.5,2.8z"/>
		<path d="M2.7,5.5C2.7,5.5,2.7,5.5,2.7,5.5C2.7,5.5,2.7,5.5,2.7,5.5C2.7,5.5,2.7,5.5,2.7,5.5z"/>
		<polygon points="2.7,5.5 2.7,5.5 2.7,5.5 		"/>
		<path d="M2.7,5.5C2.7,5.5,2.7,5.5,2.7,5.5C2.7,5.5,2.7,5.5,2.7,5.5C2.7,5.5,2.7,5.5,2.7,5.5C2.7,5.5,2.7,5.5,2.7,5.5z"/>
		<path d="M2.8,5.3c0,0,0.1-0.1,0-0.1C2.8,5.2,2.8,5.2,2.8,5.3c-0.1,0-0.1,0-0.1,0c0,0,0,0,0,0c0,0,0,0,0,0C2.7,5.4,2.7,5.3,2.8,5.3
			C2.7,5.2,2.7,5.3,2.8,5.3C2.7,5.3,2.8,5.2,2.8,5.3C2.8,5.2,2.8,5.3,2.8,5.3z"/>
		<path d="M2.6,5.5C2.5,5.4,2.5,5.4,2.6,5.5C2.5,5.4,2.5,5.5,2.6,5.5C2.5,5.5,2.5,5.5,2.6,5.5C2.5,5.5,2.6,5.5,2.6,5.5
			C2.6,5.5,2.6,5.4,2.6,5.5C2.6,5.4,2.6,5.5,2.6,5.5z"/>
		<polygon points="2.5,5.4 2.5,5.4 2.5,5.4 2.5,5.4 		"/>
		<path d="M4.2,5.2c0.1,0.1,0,0.2-0.1,0C4.1,4.9,3.9,5.1,3.8,5.1c0,0-0.1,0-0.1,0c-0.2-0.1-0.3,0-0.5,0c0,0-0.1,0.1-0.1,0.1
			c0,0-0.1,0-0.1,0c0,0-0.1,0-0.1,0.1c0,0,0.1,0,0.1,0c0,0,0,0.1,0,0.1c0,0,0-0.1,0,0c0,0,0,0,0,0c0,0,0-0.1,0,0c0,0,0,0.1-0.1,0.1
			c0,0,0,0,0,0c0,0,0,0,0,0c0,0,0,0,0,0c0,0,0,0,0,0.1c0,0,0.3-0.1,0.2-0.1c0,0,0.2,0.1,0.2,0.1c0,0,0,0,0,0c0,0-0.2,0-0.2,0
			c0,0-0.1,0-0.1,0c0,0-0.1,0-0.1,0c0,0-0.1,0-0.1,0c0,0,0,0,0,0c0,0,0,0,0,0c0,0,0,0,0,0c0,0,0,0.1,0,0.1c0,0,0.1,0,0.1,0
			c0,0,0,0,0,0c0,0,0,0,0,0c0,0,0,0,0,0c0,0,0,0,0,0c0,0,0,0,0,0c0,0,0,0,0,0c0,0,0,0,0,0c0,0,0,0,0,0c0,0,0,0,0,0c0,0,0,0,0,0
			c0,0,0,0,0,0c0,0,0,0,0.1,0c0.1,0,0.3,0,0.4,0.1c0.1,0,0.1,0.1,0.2,0.1c0.1,0.1,0.3,0,0.4,0.2c0.1,0.1,0.2,0,0.2,0
			c0.1-0.1,0-0.4,0-0.4C4.4,5.2,4.3,5.3,4.2,5.2z M3.1,5.5C3.1,5.5,3.1,5.5,3.1,5.5C3.1,5.5,3.1,5.5,3.1,5.5L3.1,5.5
			C3.1,5.5,3.1,5.5,3.1,5.5C3.1,5.5,3.1,5.5,3.1,5.5C3.1,5.5,3.1,5.5,3.1,5.5z M3.1,5.5C3.1,5.5,3.1,5.5,3.1,5.5
			C3.1,5.5,3.1,5.5,3.1,5.5C3.1,5.5,3.1,5.5,3.1,5.5z"/>
		<path d="M2.9,9.1L2.9,9.1C2.9,9.1,2.9,9.1,2.9,9.1C2.9,9,2.9,9.1,2.9,9.1z"/>
		<polygon points="3,9.1 3,9.1 3,9.1 		"/>
		<path d="M2.9,9C3,9,3,9.1,2.9,9L2.9,9C3,9.1,3,9.1,2.9,9C3,9,3,9,2.9,9z"/>
		<path d="M2.9,8.8c0,0,0-0.1,0-0.1C2.9,8.7,2.9,8.8,2.9,8.8C2.8,8.8,2.8,8.9,2.9,8.8C2.8,8.9,2.8,8.9,2.8,8.9L2.9,8.8
			C2.9,8.9,2.8,8.8,2.9,8.8C2.8,8.8,2.9,8.9,2.9,8.8C2.9,8.8,2.9,8.8,2.9,8.8C2.9,8.8,2.9,8.8,2.9,8.8z"/>
		<path d="M2.8,9.1C2.8,9,2.8,9,2.8,9.1C2.8,9.1,2.8,9.1,2.8,9.1C2.8,9.1,2.8,9.1,2.8,9.1C2.8,9.1,2.8,9.1,2.8,9.1L2.8,9.1
			C2.8,9,2.8,9.1,2.8,9.1z"/>
		<polygon points="2.8,9.1 2.8,9.1 2.8,9 2.8,9 		"/>
		<path d="M4,8.2C4.1,8.2,4.1,8.3,4,8.2C3.8,8,3.7,8.2,3.6,8.2c0,0,0,0-0.1,0c-0.2,0-0.2,0.1-0.4,0.2c0,0,0,0.1,0,0.1
			c0,0-0.1,0-0.1,0c0,0,0,0,0,0.1c0,0,0,0,0.1-0.1c0,0,0,0.1,0,0.1c0,0,0,0,0,0c0,0,0,0,0,0.1c0,0,0,0,0,0c0,0,0,0.1,0,0.1l0,0
			c0,0,0,0,0,0l0,0c0,0,0,0.1,0,0.1l0,0c0,0,0,0,0.1,0c0,0,0,0,0,0l0,0c0,0,0,0,0,0c0,0,0,0,0,0c0,0,0,0,0,0c0,0,0,0,0,0
			C3,8.9,3,9,3,9c0,0,0.1,0,0.1,0c0,0,0,0,0,0c0,0,0,0,0,0l0.2,0l0.2,0v0c0,0-0.2,0-0.2,0c0.1,0,0.2-0.1,0.3-0.1c0.1,0,0.1,0,0.2,0
			c0.1,0,0.2-0.1,0.4,0c0.1,0,0.1,0,0.1,0c0-0.1-0.1-0.4-0.1-0.4C4.2,8.1,4.2,8.3,4,8.2z M3.2,8.9C3.2,8.9,3.2,8.9,3.2,8.9
			C3.2,8.9,3.2,8.9,3.2,8.9C3.2,8.9,3.2,8.9,3.2,8.9z M3.3,8.9C3.3,8.9,3.3,8.9,3.3,8.9C3.3,8.9,3.2,8.9,3.3,8.9
			C3.2,8.9,3.2,8.9,3.3,8.9C3.2,8.9,3.3,8.9,3.3,8.9z M3.2,8.8C3.2,8.8,3.2,8.8,3.2,8.8C3.2,8.8,3.2,8.8,3.2,8.8z M3.2,8.9
			C3.2,8.9,3.2,8.9,3.2,8.9L3.2,8.9C3.2,8.9,3.2,8.9,3.2,8.9z M3.3,8.9C3.3,8.9,3.2,8.9,3.3,8.9C3.3,8.9,3.2,8.9,3.3,8.9
			C3.2,8.9,3.2,8.9,3.3,8.9L3.3,8.9L3.3,8.9L3.3,8.9C3.2,8.9,3.2,8.9,3.3,8.9L3.3,8.9C3.2,8.9,3.2,8.9,3.3,8.9
			C3.2,8.9,3.2,8.9,3.3,8.9L3.3,8.9C3.2,8.9,3.2,8.9,3.3,8.9L3.3,8.9L3.3,8.9L3.3,8.9z M3.3,8.9C3.3,8.9,3.3,8.9,3.3,8.9
			C3.3,8.9,3.3,8.9,3.3,8.9C3.3,8.8,3.3,8.8,3.3,8.9C3.3,8.8,3.3,8.8,3.3,8.9C3.3,8.8,3.3,8.8,3.3,8.9C3.3,8.9,3.3,8.9,3.3,8.9z"/>
		<polygon points="3.2,8.9 3.2,8.9 3.2,8.9 		"/>
		<path d="M11.1,4L11.1,4C11,4,11,4,11.1,4C11,4,11.1,4,11.1,4z"/>
		<path d="M11.7,5.1C11.7,5.1,11.7,5.1,11.7,5.1C11.7,5.1,11.7,5.1,11.7,5.1z"/>
		<path d="M4.9,8.3C4.9,8.3,4.9,8.3,4.9,8.3C4.9,8.3,4.9,8.3,4.9,8.3L4.9,8.3z"/>
		<path d="M4.8,8.3C4.8,8.3,4.9,8.3,4.8,8.3C4.9,8.3,4.9,8.2,4.8,8.3C4.8,8.2,4.9,8.3,4.8,8.3z"/>
		<path d="M11.9,6.2C11.9,6.2,11.9,6.2,11.9,6.2L11.9,6.2L11.9,6.2z"/>
		<path d="M9.5,10.8L9.5,10.8C9.5,10.8,9.5,10.8,9.5,10.8C9.5,10.8,9.5,10.8,9.5,10.8z"/>
		<path d="M11.7,7.7C11.7,7.7,11.7,7.7,11.7,7.7c0,0,0-0.1,0.1-0.2l0,0C11.7,7.5,11.7,7.7,11.7,7.7z"/>
		<path d="M11.6,7.9C11.6,7.9,11.6,7.9,11.6,7.9C11.6,7.9,11.6,7.9,11.6,7.9C11.6,7.9,11.6,8,11.6,7.9c0.1,0,0.1-0.1,0.2-0.2l0,0
			c0,0,0,0,0,0l0,0c0,0,0-0.1,0-0.2c0-0.1,0-0.2,0.1-0.4l-0.1-0.1l0-0.1l0,0c0,0.1,0,0.4-0.1,0.6l0,0c0-0.1,0-0.2,0-0.3
			c0,0,0.1-0.1,0.1-0.1l0-0.1c0-0.4,0-0.4,0-0.8l0,0c0-0.1,0-0.2,0-0.2c0-0.2,0-0.5,0-0.6l-0.1,0c0,0,0-0.1,0-0.1l-0.1,0
			c0-0.1-0.1-0.1-0.1-0.1h-0.5V5.1c0,0,0.3,0,0.3,0l0.1,0c0-0.2,0,0,0-0.2c0-0.1-0.1,0-0.1-0.1c0,0,0-0.1,0-0.1
			c-0.1-0.2-0.1-0.2-0.3-0.3c0-0.1,0-0.2,0.1-0.2c-0.1,0-0.1,0-0.2-0.1c0,0,0,0,0.1,0C11.1,4,11.1,4.1,11,4C11,4,10.9,4,10.9,4l0,0
			c-0.1,0-0.2-0.1-0.2-0.2l0,0l-0.1-0.1l0,0c0,0-0.1-0.1-0.1-0.1l0,0c0,0-0.2-0.1-0.2-0.1l0,0c-0.2-0.2-0.4-0.2-0.6-0.2l0,0
			c-0.1-0.1,0,0.1-0.1,0l0,0c-0.1,0-0.1,0-0.2-0.1l0,0.1l-0.1,0C9.2,3.1,9.2,3.1,9.3,3l-0.1,0l0-0.1C9.1,3.1,9.1,3,9,3c0,0,0,0,0,0
			L8.8,3l0.1,0l0,0.1c-0.1,0.1-0.2,0-0.2,0l0.1,0c-0.1,0-0.1,0-0.2,0c0,0,0.1,0,0,0c0,0,0,0-0.1,0c0,0.1-0.1,0.1-0.2,0.1
			c0,0,0,0,0,0c0,0,0,0-0.1,0l0-0.1L8.1,3.1C8,3.1,8,3.1,8,3.1l0,0c0,0-0.1,0-0.2,0c-0.1,0-0.2,0-0.2,0l0,0c0,0.1-0.2,0-0.2,0.1
			c-0.1,0-0.2,0.1-0.2,0C6.9,3.3,6.9,3.5,6.6,3.6c-0.1,0-0.4,0.2-0.5,0.3C5.8,4.1,5.7,4.3,5.4,4.7C5.2,4.8,5.1,5.1,5,5.3l0,0.1
			C4.9,5.5,4.9,5.6,4.9,5.7c0,0.1-0.1,0.2-0.1,0.3c0,0.1,0,0.1,0,0.1c0,0,0,0,0,0c0,0.1,0,0.2-0.1,0.2l0,0c-0.1,0,0,0.2-0.1,0.3
			l0.1,0c0,0,0,0.1,0,0.1l0,0c0,0.3,0,0.5,0,0.6c0,0.2,0,0.4,0.1,0.6c-0.1-0.1,0.1,0.1,0,0.1C4.7,8,4.8,8.1,4.9,8.2c0,0,0,0,0,0
			l0,0.2c-0.1-0.1,0.1,0.1,0,0c0,0.2,0.2,0.5,0.3,0.7c0.1,0.2,0.3,0.4,0.4,0.6l0,0c0.1,0.1,0.1,0.2,0.1,0.3c0,0.1,0.1,0.2,0.2,0.2
			c0.1,0.1,0,0.2,0,0.1c0,0.1,0.2-0.1,0.2,0.1c-0.1,0.1,0.2,0.2,0.1,0.2h0c0,0,0.1,0.6,0.1,0.8c0,0,0,0.1,0,0.1c0,0,0.3,0.5,0.3,0.5
			c0,0,0.1,0,0.2,0c0.1,0,0.2,0,0.2,0s0.1-0.1,0.1-0.2c0.1-0.1,0.1-0.2,0.1-0.2S7,11.2,7,11c-0.1-0.3-0.2-0.5-0.2-0.5s0-0.2-0.1-0.4
			C6.6,9.8,6.6,9.6,6.6,9.6S6.5,9.5,6.4,9.3C6.3,9.1,6.2,8.9,6,8.7C5.9,8.5,5.8,8.3,5.8,8.2C5.7,8,5.7,7.9,5.7,7.9S5.6,7.8,5.6,7.8
			c0-0.2,0-0.4,0-0.6c0-0.1,0-0.2,0-0.3c0-0.1,0-0.2,0-0.3l-0.1,0c0-0.1,0-0.1,0.1-0.1c0.1-0.9,0.7-1.8,1.5-2.2
			c0.1,0,0.3-0.1,0.4-0.1C7.7,4,8,3.9,8.3,3.9l0,0l0.1,0c0,0,0,0,0,0c0.1-0.1,0.4,0,0.5,0.1l0,0c0.5,0.1,1,0.3,1.3,0.6
			c0.4,0.3,0.6,0.8,0.7,1.3c0,0.1,0,0.2,0,0.4c0,0.1,0,0.3,0,0.4c0,0.3,0,0.6-0.1,0.8c0,0-0.1,0.3-0.3,0.6c-0.1,0.2-0.3,0.5-0.4,0.5
			l0.1-0.1C10.3,8.8,10.2,8.9,10,9C9.9,9.1,9.8,9.2,9.7,9.5l0,0c0,0,0,0.1-0.1,0.2c0,0.1-0.2,0.3-0.4,0.6l0,0c0,0,0,0,0,0.1l0.1-0.1
			c0,0.1,0,0.2,0,0.2c0,0,0,0,0,0l-0.1,0.2L9,10.7c0,0.1,0.1,0.1,0,0.2c0.1-0.1,0,0.1,0.1,0.1c0,0,0,0,0,0c0,0.1,0,0.3,0,0.4
			c0,0,0.2-0.4,0.3-0.5c-0.1,0.1,0,0,0,0l0,0c0-0.1,0.1-0.1,0.1-0.1c0,0,0,0,0,0l0,0c0,0,0,0,0,0c0,0,0,0,0,0l0,0c0,0,0-0.1,0-0.1
			l0,0c0-0.1,0.3-0.4,0.3-0.5C9.9,10.2,9.9,10,10,10c0.1-0.1,0.1,0,0.2-0.1c0.1-0.1,0,0,0,0c0,0,0.1-0.1,0.1-0.1c0,0.1,0,0,0,0
			c0.1-0.1,0.3-0.2,0.2-0.2c0.1-0.1,0.2-0.1,0.2-0.1c0,0-0.1,0-0.1,0c0.1,0,0,0,0,0c0-0.1,0.5-0.3,0.4-0.4l0,0C11,9,10.9,9,11,8.9
			l0.1,0l0-0.1c0,0,0,0,0,0c0.1-0.1,0.2-0.2,0.3-0.4c0,0-0.1,0-0.1,0c-0.1,0-0.1,0-0.1,0c0.1-0.1,0.3-0.2,0.2-0.3l0.1,0
			C11.6,8,11.4,8,11.6,7.9C11.5,8,11.5,7.9,11.6,7.9z"/>
		<path d="M9.2,10.4L9.2,10.4C9.1,10.4,9.2,10.4,9.2,10.4z"/>
		<polygon points="11.3,8.5 11.3,8.5 11.4,8.5 		"/>
		<path d="M10.3,9.8C10.2,9.8,10.2,9.8,10.3,9.8C10.3,9.8,10.3,9.8,10.3,9.8z"/>
		<path d="M9,11.1C9,11.1,9,11.1,9,11.1C9.1,11,9.1,11,9,11.1C9.1,11,9,11,9,11.1z"/>
		<path d="M9.4,11L9.4,11C9.4,11,9.4,11,9.4,11z"/>
	</g>
</g>
</svg>
