<?xml version="1.0" encoding="utf-8"?>
<!-- Generator: Adobe Illustrator 20.1.0, SVG Export Plug-In . SVG Version: 6.00 Build 0)  -->
<svg version="1.1" xmlns="http://www.w3.org/2000/svg" xmlns:xlink="http://www.w3.org/1999/xlink" x="0px" y="0px"
	 viewBox="0 0 16 16" enable-background="new 0 0 16 16" xml:space="preserve">
<g id="Hilfslinien" display="none">
</g>
<g id="Icons">
	<g>
		<g>
			<path fill="#1D1D1B" d="M8.2,13.5c-0.1,0.3-0.2,0.6-0.4,0.8c-0.2,0.2-0.5,0.4-0.9,0.5c0-0.1,0-0.2,0-0.3c0.2-0.3,0.3-0.5,0.5-0.8
				c0.1-0.1,0.2-0.2,0.3-0.4C7.8,13.2,8,13.1,8.1,13c-0.2-0.2-0.4-0.2-0.6-0.2c-0.2-0.1-0.4,0-0.5,0.1c-0.2,0.2-0.3,0.3-0.4,0.5
				c-0.3,0.5-0.5,1-0.5,1.5c0,0.1,0,0.3,0.2,0.4c0.4,0.2,0.7,0.3,1.1,0.2c0.4-0.1,0.8-0.3,1.1-0.6c0.3-0.3,0.3-0.7,0.2-1
				C8.6,13.7,8.5,13.5,8.2,13.5z M6.5,8.8c0.1,0.4,0.1,0.7,0.1,0.8c0.3,1.1,0.4,1,1,1c0.4,0,0.9-0.3,0.7-0.9C8.3,9.5,8.2,9,8.2,8.3
				c0-1.9,0.6-4.5,1.8-7.4C9.8,0.6,9.7,0.6,9.5,0.8c-0.1,0-0.4-0.3-0.5-0.3c-0.1,0-0.5,0.1-0.6,0C8,1,7.8,1.3,7.7,1.3
				C7,3.8,7,3,6.7,4.5C6.4,6,6.6,6.5,6.6,7.4L6.5,8.8z"/>
		</g>
	</g>
</g>
</svg>
